<?xml version="1.0" encoding="UTF-8"?>
<svg width="116px" height="44px" viewBox="0 0 116 44" version="1.1" xmlns="http://www.w3.org/2000/svg" xmlns:xlink="http://www.w3.org/1999/xlink">
    <!-- Generator: Sketch 46 (44423) - http://www.bohemiancoding.com/sketch -->
    <title>Group 2</title>
    <desc>Created with Sketch.</desc>
    <defs>
        <linearGradient x1="99.7640282%" y1="-1.00522952%" x2="6.97881149%" y2="129.335189%" id="linearGradient-1">
            <stop stop-color="#58C5C7" offset="0%"></stop>
            <stop stop-color="#FFF200" offset="100%"></stop>
        </linearGradient>
        <linearGradient x1="99.9239201%" y1="49.987274%" x2="-0.0025789813%" y2="50.0593337%" id="linearGradient-2">
            <stop stop-color="#F37021" offset="0%"></stop>
            <stop stop-color="#F37121" offset="25.39%"></stop>
            <stop stop-color="#F47821" offset="40.67%"></stop>
            <stop stop-color="#F58220" offset="53.27%"></stop>
            <stop stop-color="#F7901E" offset="64.41%"></stop>
            <stop stop-color="#FAA21B" offset="74.59%"></stop>
            <stop stop-color="#FDBA12" offset="84.07%"></stop>
            <stop stop-color="#FFD500" offset="92.84%"></stop>
            <stop stop-color="#FFF200" offset="100%"></stop>
        </linearGradient>
        <linearGradient x1="100.034445%" y1="49.9736724%" x2="-0.159542%" y2="50.0029253%" id="linearGradient-3">
            <stop stop-color="#58C5C7" offset="0%"></stop>
            <stop stop-color="#59B2B8" offset="17.39%"></stop>
            <stop stop-color="#568E9B" offset="52.49%"></stop>
            <stop stop-color="#4E5D74" offset="100%"></stop>
        </linearGradient>
    </defs>
    <g id="Page-1" stroke="none" stroke-width="1" fill="none" fill-rule="evenodd">
        <g id="M--Login" transform="translate(-122.000000, -24.000000)">
            <g id="Group-2" transform="translate(122.000000, 24.000000)">
                <g id="Group" transform="translate(53.077888, 10.047244)">
                    <path d="M17.8741105,24.8548844 C17.9921053,24.8548844 18.1025131,24.846426 18.2053372,24.8295091 C18.3081613,24.8125922 18.397499,24.777913 18.4733528,24.7254706 C18.5492067,24.6730282 18.6098888,24.597749 18.6554011,24.4996309 C18.7009134,24.4015128 18.7236693,24.2712545 18.7236693,24.1088521 L18.7236693,18.5364481 C18.7236693,18.3841958 18.7009134,18.26155 18.6554011,18.168507 C18.6098888,18.075464 18.5483639,18.0035682 18.4708244,17.9528174 C18.3932849,17.9020667 18.3031044,17.8690792 18.2002803,17.853854 C18.0974562,17.8386287 17.988734,17.8310162 17.8741105,17.8310162 L17.7426311,17.8310162 L17.7426311,17.394562 L19.6996505,17.394562 L19.6996505,24.1088521 C19.6996505,24.2712545 19.7215635,24.4015128 19.7653902,24.4996309 C19.8092168,24.597749 19.869899,24.6730282 19.9474385,24.7254706 C20.024978,24.777913 20.1151584,24.8125922 20.2179825,24.8295091 C20.3208066,24.846426 20.4312144,24.8548844 20.5492093,24.8548844 L20.6806886,24.8548844 L20.6806886,25.2913386 L17.7426311,25.2913386 L17.7426311,24.8548844 L17.8741105,24.8548844 Z M21.1914353,24.8548844 C21.3060589,24.8548844 21.4147811,24.8472719 21.5176052,24.8320466 C21.6204293,24.8168214 21.7106098,24.7855256 21.7881492,24.7381582 C21.8656887,24.6907909 21.9272137,24.6205867 21.972726,24.5275437 C22.0182383,24.4345006 22.0409941,24.3118548 22.0409941,24.1596026 L22.0409941,20.8658957 C22.0409941,20.7136434 22.0182383,20.5909976 21.972726,20.4979546 C21.9272137,20.4049116 21.8656887,20.3330158 21.7881492,20.282265 C21.7106098,20.2315143 21.6204293,20.1976809 21.5176052,20.180764 C21.4147811,20.1638471 21.3060589,20.1553888 21.1914353,20.1553888 L21.1610939,20.1553888 L21.1610939,19.7189345 L23.0119185,19.7189345 L23.0119185,24.1088521 C23.0119185,24.2712545 23.0346743,24.4015128 23.0801866,24.4996309 C23.1256989,24.597749 23.1863811,24.6730282 23.2622349,24.7254706 C23.3380887,24.777913 23.4282692,24.8125922 23.5327789,24.8295091 C23.6372887,24.846426 23.7468537,24.8548844 23.8614773,24.8548844 L23.9980135,24.8548844 L23.9980135,25.2913386 L21.0548991,25.2913386 L21.0548991,24.8548844 L21.1914353,24.8548844 Z M24.169948,20.1553888 L24.169948,19.7189345 L26.7590796,19.7189345 L26.7590796,20.1553888 L26.6276003,20.1553888 C26.4185808,20.1553888 26.2626614,20.1959888 26.1598373,20.27719 C26.0570132,20.3583912 26.0056019,20.4852661 26.0056019,20.6578187 C26.0056019,20.7153362 26.0123443,20.7736986 26.0258295,20.8329078 C26.0393146,20.8921171 26.059542,20.9606295 26.0865122,21.0384473 L26.789421,23.0024914 C26.8332477,23.1242932 26.8787593,23.2587806 26.9259573,23.4059578 C26.9731552,23.553135 27.017824,23.6977724 27.059965,23.8398745 C27.1021061,23.9819766 27.1400324,24.1164641 27.1737452,24.2433409 C27.2074581,24.3702178 27.2310567,24.4776386 27.2445418,24.5656065 L27.2799401,24.5656065 C27.2967965,24.4911721 27.3246092,24.3989763 27.3633789,24.2890164 C27.4021486,24.1790564 27.4459747,24.0589481 27.4948582,23.9286879 C27.5437418,23.7984276 27.5943103,23.6656318 27.6465652,23.5302965 C27.69882,23.3949612 27.7485457,23.2647029 27.7957436,23.1395177 L28.5391076,21.1145731 C28.5728204,21.0299885 28.5972619,20.9487885 28.6124326,20.8709707 C28.6276034,20.7931529 28.6351887,20.7254863 28.6351887,20.6679688 C28.6351887,20.4886494 28.5787205,20.3583912 28.4657826,20.27719 C28.3528446,20.1959888 28.1817547,20.1553888 27.9525075,20.1553888 L27.876654,20.1553888 L27.876654,19.7189345 L30.0966321,19.7189345 L30.0966321,20.1553888 L29.9702096,20.1553888 C29.8690712,20.1553888 29.7831048,20.1663846 29.7123079,20.1883766 C29.6415109,20.2103686 29.5774575,20.2518144 29.5201458,20.3127153 C29.462834,20.3736162 29.4080514,20.4565078 29.3557966,20.5613927 C29.3035417,20.6662776 29.245388,20.8016109 29.1813336,20.9673967 L27.5479557,25.2913386 L26.6023158,25.2913386 L24.9385965,20.7085691 C24.8981411,20.6003009 24.8560007,20.5106426 24.812174,20.4395915 C24.7683474,20.3685405 24.7177789,20.3118697 24.6604671,20.2695774 C24.6031553,20.2272851 24.5374163,20.1976809 24.4632481,20.180764 C24.3890799,20.1638471 24.3014279,20.1553888 24.2002894,20.1553888 L24.169948,20.1553888 Z M30.5011839,24.8548844 C30.6158075,24.8548844 30.7245297,24.8472719 30.8273538,24.8320466 C30.9301779,24.8168214 31.0203583,24.7855256 31.0978978,24.7381582 C31.1754373,24.6907909 31.2369623,24.6205867 31.2824746,24.5275437 C31.3279869,24.4345006 31.3507427,24.3118548 31.3507427,24.1596026 L31.3507427,20.8658957 C31.3507427,20.7136434 31.3279869,20.5909976 31.2824746,20.4979546 C31.2369623,20.4049116 31.1754373,20.3330158 31.0978978,20.282265 C31.0203583,20.2315143 30.9301779,20.1976809 30.8273538,20.180764 C30.7245297,20.1638471 30.6158075,20.1553888 30.5011839,20.1553888 L30.4708425,20.1553888 L30.4708425,19.7189345 L32.3216671,19.7189345 L32.3216671,24.1088521 C32.3216671,24.2712545 32.3444229,24.4015128 32.3899352,24.4996309 C32.4354475,24.597749 32.4961296,24.6730282 32.5719835,24.7254706 C32.6478373,24.777913 32.7380178,24.8125922 32.8425275,24.8295091 C32.9470373,24.846426 33.0566023,24.8548844 33.1712259,24.8548844 L33.3077621,24.8548844 L33.3077621,25.2913386 L30.3646477,25.2913386 L30.3646477,24.8548844 L30.5011839,24.8548844 Z M36.5138352,24.8548844 L36.5138352,25.2913386 L33.7274846,25.2913386 L33.7274846,24.8548844 L33.8134519,24.8548844 C33.9314467,24.8548844 34.0418546,24.846426 34.1446787,24.8295091 C34.2475028,24.8125922 34.3368404,24.777913 34.4126942,24.7254706 C34.4885481,24.6730282 34.5492302,24.597749 34.5947425,24.4996309 C34.6402549,24.4015128 34.6630107,24.2712545 34.6630107,24.1088521 L34.6630107,20.8658957 C34.6630107,20.7136434 34.6402549,20.5909976 34.5947425,20.4979546 C34.5492302,20.4049116 34.4877053,20.3330158 34.4101658,20.282265 C34.3326263,20.2315143 34.2424459,20.1976809 34.1396218,20.180764 C34.0367977,20.1638471 33.9280754,20.1553888 33.8134519,20.1553888 L33.7831105,20.1553888 L33.7831105,19.7189345 L35.4569436,19.7189345 L35.5934798,20.5613927 L35.6440488,20.5613927 C35.7519298,20.3685399 35.8657089,20.2103691 35.9853894,20.0868756 C36.1050699,19.9633821 36.2314911,19.8669572 36.3646567,19.7975978 C36.4978224,19.7282385 36.6394141,19.6808718 36.7894361,19.6554964 C36.9394582,19.6301211 37.0970632,19.6174336 37.2622561,19.6174336 C37.5353299,19.6174336 37.7789014,19.6571877 37.9929778,19.7366972 C38.2070542,19.8162067 38.3891007,19.9380067 38.5391227,20.1021008 C38.6891448,20.2661948 38.8037666,20.4768073 38.8829918,20.7339444 C38.9622169,20.9910815 39.0018289,21.2972731 39.0018289,21.6525283 L39.0018289,24.1088521 C39.0018289,24.2712545 39.0212134,24.4015128 39.0599832,24.4996309 C39.0987529,24.597749 39.1535354,24.6730282 39.2243324,24.7254706 C39.2951293,24.777913 39.3794101,24.8125922 39.4771772,24.8295091 C39.5749444,24.846426 39.6811382,24.8548844 39.7957618,24.8548844 L39.8311601,24.8548844 L39.8311601,25.2913386 L38.0258476,25.2913386 L38.0258476,21.7032788 C38.0258476,21.4765921 38.0056202,21.2752839 37.9651648,21.0993479 C37.9247095,20.923412 37.8598132,20.7745454 37.7704743,20.6527436 C37.6811353,20.5309418 37.563985,20.438746 37.4190199,20.3761534 C37.2740548,20.3135608 37.0970651,20.282265 36.8880456,20.282265 C36.6520559,20.282265 36.4539961,20.32794 36.2938602,20.4192913 C36.1337243,20.5106427 36.0047747,20.6341343 35.9070075,20.7897699 C35.8092403,20.9454056 35.7392873,21.1247222 35.6971462,21.3277251 C35.6550052,21.5307281 35.633935,21.7438781 35.633935,21.9671813 L35.633935,24.1596026 C35.633935,24.3118548 35.6566908,24.4345006 35.7022031,24.5275437 C35.7477154,24.6205867 35.8092404,24.6907909 35.8867799,24.7381582 C35.9643194,24.7855256 36.0544998,24.8168214 36.1573239,24.8320466 C36.260148,24.8472719 36.3688702,24.8548844 36.4834938,24.8548844 L36.5138352,24.8548844 Z M45.565682,19.9371617 C45.565682,20.0115961 45.5547255,20.0818002 45.5328122,20.1477762 C45.5108988,20.2137522 45.4780293,20.2712688 45.4342027,20.3203279 C45.390376,20.3693869 45.3339079,20.4082953 45.2647966,20.437054 C45.1956853,20.4658128 45.113933,20.4801919 45.0195371,20.4801919 C45.0195371,20.4395913 45.0144802,20.3989913 45.0043664,20.3583907 C44.9942525,20.3177902 44.9765536,20.2797277 44.9512689,20.2442021 C44.9259843,20.2086766 44.8914292,20.1799183 44.8476025,20.1579263 C44.8037759,20.1359343 44.7464649,20.1249385 44.675668,20.1249385 C44.5880147,20.1249385 44.5087908,20.1350885 44.4379938,20.1553888 C44.3671969,20.1756891 44.2980867,20.2078307 44.230661,20.2518147 C44.3486559,20.3973002 44.4455788,20.5690043 44.5214326,20.7669322 C44.5972865,20.9648601 44.6352128,21.2126892 44.6352128,21.5104269 C44.6352128,21.767564 44.5964437,22.0052431 44.5189042,22.2234713 C44.4413647,22.4416995 44.3259,22.6303203 44.1725067,22.7893393 C44.0191134,22.9483583 43.8252676,23.0726958 43.5909635,23.1623554 C43.3566594,23.2520151 43.0827468,23.2968442 42.7692176,23.2968442 C42.7287622,23.2968442 42.6832506,23.2959984 42.6326814,23.2943067 L42.4809744,23.2892317 C42.4304052,23.28754 42.383208,23.2841566 42.3393813,23.2790816 C42.2955546,23.2740065 42.2601567,23.2697773 42.2331865,23.2663939 C42.1657608,23.3002278 42.1017074,23.3374444 42.0410243,23.378045 C41.9803413,23.4186456 41.9272444,23.4643206 41.8817321,23.5150714 C41.8362198,23.5658221 41.799979,23.6233388 41.7730088,23.687623 C41.7460385,23.7519073 41.7325536,23.8229573 41.7325536,23.9007751 C41.7325536,23.9853597 41.7485669,24.0530263 41.7805941,24.1037771 C41.8126213,24.1545278 41.8572901,24.194282 41.9146019,24.2230407 C41.9719137,24.2517995 42.0401811,24.2704078 42.1194063,24.2788663 C42.1986314,24.2873247 42.283755,24.2915539 42.3747796,24.2915539 L43.5479798,24.2915539 C43.8581378,24.2915539 44.1210938,24.3304622 44.3368559,24.40828 C44.5526179,24.4860978 44.7287648,24.5935186 44.8653017,24.7305456 C45.0018386,24.8675727 45.1012899,25.0316643 45.1636586,25.2228254 C45.2260274,25.4139866 45.2572113,25.6212157 45.2572113,25.8445189 C45.2572113,26.1422567 45.2024287,26.4112316 45.0928621,26.6514518 C44.9832954,26.891672 44.8155767,27.0955177 44.5897008,27.2629952 C44.3638249,27.4304727 44.078113,27.5598851 43.7325566,27.6512365 C43.3870002,27.7425878 42.979924,27.7882628 42.5113158,27.7882628 C41.7898615,27.7882628 41.2504645,27.6546212 40.8931086,27.3873339 C40.5357527,27.1200466 40.3570774,26.7478801 40.3570774,26.2708231 C40.3570774,26.0678201 40.3924754,25.8901952 40.4632723,25.7379429 C40.5340692,25.5856907 40.6293065,25.4554324 40.748987,25.3471641 C40.8686675,25.2388959 41.0060452,25.1509292 41.1611242,25.0832616 C41.3162031,25.0155939 41.4797078,24.9665356 41.6516432,24.9360851 C41.5808463,24.9056347 41.5117361,24.8650347 41.4443104,24.814284 C41.3768848,24.7635332 41.3162026,24.7026332 41.2622621,24.6315822 C41.2083216,24.5605311 41.1644956,24.4793312 41.1307828,24.3879798 C41.0970699,24.2966285 41.0802138,24.1951285 41.0802138,24.0834769 C41.0802138,23.8770905 41.1341535,23.6986197 41.2420345,23.5480592 C41.3499155,23.3974986 41.5218483,23.2511695 41.7578381,23.1090674 C41.6095017,23.0481665 41.4771808,22.9644291 41.3608716,22.8578525 C41.2445624,22.7512759 41.1467967,22.629476 41.0675715,22.4924489 C40.9883464,22.3554219 40.9276643,22.2057095 40.8855232,22.0433071 C40.8433822,21.8809047 40.822312,21.7134298 40.822312,21.5408772 C40.822312,21.2397561 40.8627668,20.9707812 40.9436776,20.7339444 C41.0245883,20.4971076 41.1459526,20.2957993 41.3077742,20.1300135 C41.4695957,19.9642278 41.6718696,19.8373528 41.9146019,19.7493848 C42.1573342,19.6614169 42.4422033,19.6174336 42.7692176,19.6174336 C42.893955,19.6174336 43.017005,19.6267377 43.1383711,19.6453463 C43.2597373,19.6639549 43.3718307,19.6893299 43.4746548,19.7214721 C43.5774789,19.7536142 43.6701878,19.789985 43.7527842,19.8305856 C43.8353806,19.8711862 43.9019624,19.9134779 43.9525317,19.9574619 C44.0031009,19.9033277 44.0620974,19.8432736 44.1295231,19.7772976 C44.1969487,19.7113216 44.2728014,19.6504217 44.3570835,19.5945958 C44.4413655,19.53877 44.5332316,19.4922492 44.6326844,19.455032 C44.7321372,19.4178148 44.8391738,19.3992064 44.9537974,19.3992064 C45.0583071,19.3992064 45.1484876,19.4135856 45.2243414,19.4423444 C45.3001953,19.4711031 45.3634059,19.5100114 45.4139751,19.5590705 C45.4645443,19.6081296 45.5024707,19.6656462 45.5277553,19.7316222 C45.5530399,19.7975981 45.565682,19.8661106 45.565682,19.9371617 Z M41.1965224,26.2048474 C41.1965224,26.3570997 41.2167498,26.4991996 41.2572052,26.6311516 C41.2976606,26.7631035 41.3684564,26.8764451 41.4695949,26.9711799 C41.5707334,27.0659146 41.7072682,27.1403479 41.8792036,27.194482 C42.051139,27.2486162 42.2685834,27.2756828 42.5315434,27.2756828 C42.9023844,27.2756828 43.2083237,27.244387 43.4493703,27.1817944 C43.690417,27.1192018 43.8817344,27.032081 44.0233282,26.9204294 C44.1649221,26.8087777 44.2643734,26.6759819 44.3216852,26.522038 C44.378997,26.3680941 44.4076524,26.1997733 44.4076524,26.0170706 C44.4076524,25.8580516 44.3848966,25.7269475 44.3393843,25.6237543 C44.293872,25.5205611 44.2264474,25.4393611 44.1371084,25.3801519 C44.0477694,25.3209427 43.9373616,25.2794969 43.8058816,25.2558132 C43.6744016,25.2321296 43.5226962,25.2202879 43.3507608,25.2202879 L42.3343244,25.2202879 C42.1893593,25.2202879 42.0486104,25.2329754 41.9120735,25.2583508 C41.7755365,25.2837261 41.6541722,25.3319386 41.5479768,25.4029897 C41.4417814,25.4740407 41.3566578,25.573849 41.2926035,25.7024176 C41.2285491,25.8309861 41.1965224,25.9984611 41.1965224,26.2048474 Z M41.7982933,21.5104269 C41.7982933,21.9536501 41.8716175,22.27845 42.0182683,22.4848364 C42.1649191,22.6912227 42.4051193,22.7944144 42.7388762,22.7944144 C42.9074403,22.7944144 43.0498748,22.7690394 43.1661841,22.7182886 C43.2824933,22.6675379 43.3777306,22.5897212 43.4518988,22.4848364 C43.526067,22.3799515 43.5791639,22.245464 43.6111911,22.08137 C43.6432182,21.9172759 43.6592316,21.7218884 43.6592316,21.4952018 C43.6592316,21.0282949 43.5884357,20.683195 43.4468419,20.4598917 C43.305248,20.2365885 43.0658906,20.1249385 42.7287624,20.1249385 C42.3950055,20.1249385 42.1564909,20.2391259 42.0132114,20.4675043 C41.8699319,20.6958827 41.7982933,21.0435201 41.7982933,21.5104269 Z" id="living" fill="#2DCCD3"></path>
                    <path d="M10.5426202,12.8188976 L10.3079802,12.8188976 C9.70384645,12.8188976 9.19681325,12.8053643 8.78686537,12.7782972 C8.37691748,12.7512302 8.02361243,12.6889769 7.72693962,12.5915354 C7.4302668,12.494094 7.17405322,12.3465807 6.95829117,12.1489911 C6.74252913,11.9514016 6.52677032,11.6820883 6.31100827,11.3410433 L4.83843968,9.01058071 L4.1749747,9.50590551 L4.1749747,10.8538386 C4.1749747,11.0920288 4.21408099,11.2814954 4.29229473,11.4222441 C4.37050847,11.5629928 4.46759993,11.6712595 4.58357203,11.7470472 C4.69954413,11.822835 4.82765093,11.8729083 4.96789626,11.8972687 C5.10814159,11.9216291 5.23759687,11.9338091 5.356266,11.9338091 L5.55045087,11.9338091 L5.55045087,12.8188976 L0.283186269,12.8188976 L0.283186269,11.9338091 L0.477371139,11.9338091 C0.601434315,11.9338091 0.732238093,11.9216291 0.869786397,11.8972687 C1.0073347,11.8729083 1.134093,11.822835 1.2500651,11.7470472 C1.3660372,11.6712595 1.46312866,11.5629928 1.54134241,11.4222441 C1.61955615,11.2814954 1.65866243,11.0920288 1.65866243,10.8538386 L1.65866243,2.07603347 C1.65866243,1.85408354 1.61955615,1.67679692 1.54134241,1.54416831 C1.46312866,1.41153969 1.36468871,1.30868639 1.24601958,1.23560532 C1.12735046,1.16252424 0.999243664,1.11515759 0.86169536,1.09350394 C0.724147056,1.07185029 0.596040264,1.06102362 0.477371139,1.06102362 L0.283186269,1.06102362 L0.283186269,0.184055119 L4.1749747,0.184055119 L4.1749747,6.59891732 C4.1749747,6.75049288 4.17092923,6.92507283 4.16283815,7.1226624 C4.15474707,7.32025197 4.14530762,7.50836525 4.13451952,7.68700787 C4.11833737,7.89813098 4.10485244,8.11195758 4.09406434,8.3284941 L6.18155169,5.98179134 C6.36494943,5.77608165 6.48496527,5.61232837 6.54160281,5.49052658 C6.59824034,5.36872479 6.62655869,5.26722482 6.62655869,5.18602362 C6.62655869,5.04527489 6.5523916,4.93565492 6.40405519,4.85716043 C6.25571878,4.77866595 6.04400545,4.73941929 5.76890884,4.73941929 L5.76890884,3.90305118 L9.94388355,3.90305118 L9.94388355,4.73941929 C9.56090592,4.73941929 9.18467649,4.85174592 8.81518399,5.07640256 C8.44569149,5.30105919 8.04249221,5.65969242 7.60557407,6.15231299 L6.5618304,7.34596457 L8.76259226,10.6427165 C9.05387102,11.081203 9.34784239,11.4060029 9.64451521,11.617126 C9.94118802,11.8282491 10.2216745,11.9338091 10.485983,11.9338091 L10.5426202,11.9338091 L10.5426202,12.8188976 Z M11.9666426,1.20718504 C11.9666426,0.996061937 12.0030519,0.814715325 12.0758716,0.663139764 C12.1486913,0.511564203 12.2484797,0.388410907 12.3752399,0.293676182 C12.5020001,0.198941456 12.6503343,0.128568144 12.8202469,0.0825541344 C12.9901595,0.0365401248 13.174903,0.0135334651 13.3744829,0.0135334651 C13.5632747,0.0135334651 13.7439727,0.0365401248 13.9165823,0.0825541344 C14.089192,0.128568144 14.2402231,0.198941456 14.3696804,0.293676182 C14.4991376,0.388410907 14.6029715,0.511564203 14.6811853,0.663139764 C14.759399,0.814715325 14.7985053,0.996061937 14.7985053,1.20718504 C14.7985053,1.41289473 14.759399,1.59153468 14.6811853,1.74311024 C14.6029715,1.8946858 14.4991376,2.01919243 14.3696804,2.11663386 C14.2402231,2.21407529 14.089192,2.28715527 13.9165823,2.33587598 C13.7439727,2.3845967 13.5632747,2.40895669 13.3744829,2.40895669 C13.174903,2.40895669 12.9901595,2.3845967 12.8202469,2.33587598 C12.6503343,2.28715527 12.5020001,2.21407529 12.3752399,2.11663386 C12.2484797,2.01919243 12.1486913,1.8946858 12.0758716,1.74311024 C12.0030519,1.59153468 11.9666426,1.41289473 11.9666426,1.20718504 Z M11.0199914,11.9338091 C11.1440545,11.9338091 11.2748583,11.9216291 11.4124066,11.8972687 C11.5499549,11.8729083 11.6767132,11.822835 11.7926853,11.7470472 C11.9086574,11.6712595 12.0057489,11.5629928 12.0839626,11.4222441 C12.1621764,11.2814954 12.2012827,11.0920288 12.2012827,10.8538386 L12.2012827,5.80314961 C12.2012827,5.58119968 12.1621764,5.40391307 12.0839626,5.27128445 C12.0057489,5.13865583 11.9073089,5.03580253 11.7886398,4.96272146 C11.6699707,4.88964038 11.5418639,4.84227373 11.4043156,4.82062008 C11.2667673,4.79896643 11.1386605,4.78813976 11.0199914,4.78813976 L10.8258065,4.78813976 L10.8258065,3.90305118 L14.7175949,3.90305118 L14.7175949,10.8538386 C14.7175949,11.0920288 14.7567012,11.2814954 14.834915,11.4222441 C14.9131287,11.5629928 15.0102202,11.6712595 15.1261923,11.7470472 C15.2421644,11.822835 15.3702712,11.8729083 15.5105165,11.8972687 C15.6507618,11.9216291 15.7802171,11.9338091 15.8988862,11.9338091 L16.0930711,11.9338091 L16.0930711,12.8188976 L10.8258065,12.8188976 L10.8258065,11.9338091 L11.0199914,11.9338091 Z M23.3183665,12.8188976 L23.3183665,7.34596457 C23.3183665,6.98867932 23.2954421,6.67064608 23.2495927,6.39185532 C23.2037432,6.11306455 23.1282276,5.87893796 23.0230436,5.6894685 C22.9178596,5.49999905 22.7803134,5.35519243 22.6104008,5.25504429 C22.4404882,5.15489615 22.2341688,5.10482284 21.9914365,5.10482284 C21.7163399,5.10482284 21.4870962,5.17519615 21.3036984,5.31594488 C21.1203007,5.45669362 20.973315,5.64480689 20.862737,5.88029035 C20.7521589,6.11577382 20.6725979,6.38914707 20.6240514,6.70041831 C20.5755049,7.01168955 20.5512321,7.33784278 20.5512321,7.6788878 L20.5512321,10.8538386 C20.5512321,11.0866153 20.5795504,11.2733753 20.636188,11.414124 C20.6928255,11.5548728 20.7723865,11.6644927 20.8748735,11.7429872 C20.9773605,11.8214817 21.1027703,11.8729083 21.2511067,11.8972687 C21.3994431,11.9216291 21.5653077,11.9338091 21.7487054,11.9338091 L21.7972517,11.9338091 L21.7972517,12.8188976 L16.7079899,12.8188976 L16.7079899,11.9338091 L16.740354,11.9338091 C16.9291458,11.9338091 17.1017528,11.9216291 17.2581803,11.8972687 C17.4146078,11.8729083 17.5508055,11.8201284 17.6667776,11.7389272 C17.7827497,11.657726 17.8730987,11.5413393 17.9378274,11.3897638 C18.002556,11.2381882 18.0349198,11.0378949 18.0349198,10.788878 L18.0349198,5.86811024 C18.0349198,5.63533348 18.0066015,5.44857354 17.9499639,5.3078248 C17.8933264,5.16707607 17.8124168,5.0574561 17.7072328,4.97896161 C17.6020488,4.90046713 17.476639,4.84904048 17.3309996,4.82468012 C17.1853603,4.80031976 17.0208442,4.78813976 16.8374464,4.78813976 L16.7889002,4.78813976 L16.7889002,3.90305118 L20.2680458,3.90305118 L20.4865038,5.08858268 L20.5674141,5.08858268 C20.7346297,4.77460473 20.9112823,4.52559147 21.097377,4.34153543 C21.2834718,4.1574794 21.4817002,4.01673277 21.6920682,3.91929134 C21.9024362,3.82184991 22.1249374,3.75959659 22.3595787,3.73252953 C22.5942199,3.70546246 22.840994,3.69192913 23.0999085,3.69192913 C23.5260385,3.69192913 23.9090104,3.75418245 24.2488356,3.87869095 C24.5886609,4.00319944 24.8758898,4.19537272 25.110531,4.45521654 C25.3451722,4.71506035 25.5245217,5.04662692 25.6485849,5.44992618 C25.7726481,5.85322544 25.8346787,6.3363653 25.8346787,6.89936024 L25.8346787,10.7563976 C25.8346787,11.0162415 25.8576031,11.2233014 25.9034525,11.3775837 C25.949302,11.5318659 26.0180751,11.6496059 26.109774,11.7308071 C26.2014728,11.8120083 26.3174432,11.8661416 26.4576885,11.8932087 C26.5979339,11.9202757 26.76245,11.9338091 26.9512417,11.9338091 L26.999788,11.9338091 L26.999788,12.8188976 L23.3183665,12.8188976 Z M31.255673,12.9812992 C30.6569333,12.9812992 30.1458547,12.9325792 29.7224217,12.8351378 C29.2989886,12.7376964 28.9537745,12.6023631 28.686769,12.4291339 C28.4197635,12.2559046 28.2255806,12.050198 28.1042144,11.8120079 C27.9828483,11.5738177 27.9221661,11.3166845 27.9221661,11.0406004 C27.9221661,10.7699297 27.9747573,10.5520431 28.0799413,10.3869341 C28.1851253,10.221825 28.3172776,10.0932583 28.4764021,10.0012303 C28.6355266,9.9092023 28.8040882,9.84830231 28.9820918,9.81852854 C29.1600955,9.78875477 29.3219146,9.77386811 29.467554,9.77386811 C29.467554,10.1203265 29.5107058,10.4315931 29.5970106,10.7076772 C29.6833154,10.9837612 29.8046797,11.2178878 29.9611072,11.410064 C30.1175347,11.6022401 30.3049752,11.7497534 30.5234342,11.8526083 C30.7418933,11.9554631 30.9859705,12.0068898 31.255673,12.0068898 C31.5415577,12.0068898 31.7883319,11.9771164 31.9960028,11.9175689 C32.2036738,11.8580214 32.3735839,11.775468 32.5057381,11.6699065 C32.6378924,11.5643449 32.7363323,11.442545 32.8010609,11.304503 C32.8657896,11.1664609 32.8981534,11.0216543 32.8981534,10.8700787 C32.8981534,10.6860227 32.8644411,10.5222694 32.7970154,10.378814 C32.7295898,10.2353585 32.6176649,10.1000252 32.4612374,9.97281004 C32.3048099,9.84559484 32.0957936,9.72108821 31.8341821,9.59928642 C31.5725706,9.47748463 31.2475839,9.348918 30.8592122,9.21358268 C30.411506,9.0565937 30.0163977,8.89013375 29.6738754,8.71419784 C29.3313532,8.53826192 29.0427758,8.33796864 28.8081346,8.11331201 C28.5734933,7.88865537 28.3954923,7.63152212 28.2741262,7.34190453 C28.15276,7.05228694 28.0920779,6.72072037 28.0920779,6.34719488 C28.0920779,5.90329503 28.1770329,5.51624181 28.3469455,5.18602362 C28.5168581,4.85580544 28.7582383,4.58107885 29.0710932,4.36183563 C29.3839482,4.14259241 29.7588291,3.97883912 30.1957473,3.87057087 C30.6326654,3.76230261 31.1181227,3.70816929 31.6521338,3.70816929 C32.1753568,3.70816929 32.6203593,3.75282928 32.9871548,3.84215059 C33.3539503,3.9314719 33.6533156,4.04921187 33.8852598,4.19537402 C34.117204,4.34153616 34.2871141,4.50664278 34.3949951,4.69069882 C34.5028761,4.87475486 34.5568158,5.0615148 34.5568158,5.25098425 C34.5568158,5.62450974 34.426012,5.90870966 34.1644006,6.10359252 C33.9027891,6.29847538 33.469923,6.39591535 32.8657892,6.39591535 C32.8657892,5.84374724 32.7430764,5.4147407 32.4976471,5.10888287 C32.2522178,4.80302505 31.8894733,4.65009843 31.4094027,4.65009843 C31.231399,4.65009843 31.0601405,4.67175175 30.8956219,4.71505906 C30.7311034,4.75836636 30.5881631,4.82332634 30.466797,4.90994095 C30.3454308,4.99655555 30.2483394,5.10346885 30.1755197,5.23068406 C30.1027,5.35789926 30.0662907,5.50811921 30.0662907,5.68134843 C30.0662907,5.85999105 30.100003,6.01968434 30.1674287,6.16043307 C30.2348543,6.30118181 30.3535216,6.43516177 30.5234342,6.56237697 C30.6933469,6.68959217 30.9239391,6.8181588 31.2152178,6.94808071 C31.5064966,7.07800262 31.8786806,7.22145591 32.3317808,7.37844488 C32.6985763,7.50836679 33.037048,7.65588008 33.3472059,7.82098917 C33.6573638,7.98609827 33.9243654,8.17556488 34.1482185,8.38939469 C34.3720716,8.60322449 34.5460271,8.84682442 34.6700903,9.12020177 C34.7941535,9.39357912 34.8561842,9.70619903 34.8561842,10.0580709 C34.8561842,10.518211 34.7766231,10.9296242 34.6174986,11.2923228 C34.4583741,11.6550215 34.2250849,11.9608747 33.917624,12.2098917 C33.610163,12.4589087 33.2325851,12.6497287 32.7848789,12.7823573 C32.3371726,12.9149859 31.8274424,12.9812992 31.255673,12.9812992 Z M42.4536672,12.8188976 L42.4536672,7.34596457 C42.4536672,6.98867932 42.4307428,6.67064608 42.3848934,6.39185532 C42.3390439,6.11306455 42.2635284,5.87893796 42.1583444,5.6894685 C42.0531604,5.49999905 41.9156141,5.35519243 41.7457015,5.25504429 C41.5757889,5.15489615 41.3694695,5.10482284 41.1267372,5.10482284 C40.8516406,5.10482284 40.6223969,5.17519615 40.4389992,5.31594488 C40.2556014,5.45669362 40.1086157,5.64480689 39.9980377,5.88029035 C39.8874596,6.11577382 39.8078986,6.38914707 39.7593521,6.70041831 C39.7108057,7.01168955 39.6865328,7.33784278 39.6865328,7.6788878 L39.6865328,10.8538386 C39.6865328,11.0866153 39.7148511,11.2733753 39.7714887,11.414124 C39.8281262,11.5548728 39.9076873,11.6644927 40.0101742,11.7429872 C40.1126612,11.8214817 40.238071,11.8729083 40.3864074,11.8972687 C40.5347438,11.9216291 40.7006084,11.9338091 40.8840062,11.9338091 L40.9325524,11.9338091 L40.9325524,12.8188976 L35.8432906,12.8188976 L35.8432906,11.9338091 L35.8756547,11.9338091 C36.0644465,11.9338091 36.2370536,11.9216291 36.393481,11.8972687 C36.5499085,11.8729083 36.6861063,11.8201284 36.8020784,11.7389272 C36.9180505,11.657726 37.0083995,11.5413393 37.0731281,11.3897638 C37.1378567,11.2381882 37.1702205,11.0378949 37.1702205,10.788878 L37.1702205,2.07603347 C37.1702205,1.85408354 37.1311142,1.67679692 37.0529005,1.54416831 C36.9746868,1.41153969 36.8762468,1.30868639 36.7575777,1.23560532 C36.6389085,1.16252424 36.5108018,1.11515759 36.3732535,1.09350394 C36.2357051,1.07185029 36.1075984,1.06102362 35.9889292,1.06102362 L35.7947444,1.06102362 L35.7947444,0.184055119 L39.6865328,0.184055119 L39.6865328,2.92052165 C39.6865328,3.13705817 39.6797903,3.36983143 39.6663052,3.61884843 C39.6528201,3.86786542 39.6379867,4.09793202 39.6218045,4.30905512 C39.6002283,4.55807211 39.5786524,4.80167204 39.5570762,5.03986221 L39.7027149,5.03986221 C39.8699305,4.72588426 40.046583,4.47957767 40.2326777,4.30093504 C40.4187725,4.12229241 40.6170009,3.98831246 40.8273689,3.89899114 C41.0377369,3.80966983 41.2602382,3.75282985 41.4948794,3.72846949 C41.7295206,3.70410913 41.9762948,3.69192913 42.2352092,3.69192913 C42.6613393,3.69192913 43.0443111,3.75418245 43.3841364,3.87869095 C43.7239616,4.00319944 44.0111905,4.19537272 44.2458317,4.45521654 C44.4804729,4.71506035 44.6598225,5.04662692 44.7838856,5.44992618 C44.9079488,5.85322544 44.9699795,6.3363653 44.9699795,6.89936024 L44.9699795,10.7563976 C44.9699795,11.0162415 44.9929038,11.2233014 45.0387533,11.3775837 C45.0846027,11.5318659 45.1533758,11.6496059 45.2450747,11.7308071 C45.3367736,11.8120083 45.4527439,11.8661416 45.5929893,11.8932087 C45.7332346,11.9202757 45.8977507,11.9338091 46.0865425,11.9338091 L46.1350887,11.9338091 L46.1350887,12.8188976 L42.4536672,12.8188976 Z M47.987936,1.20718504 C47.987936,0.996061937 48.0243453,0.814715325 48.097165,0.663139764 C48.1699847,0.511564203 48.2697731,0.388410907 48.3965333,0.293676182 C48.5232935,0.198941456 48.6716277,0.128568144 48.8415403,0.0825541344 C49.0114529,0.0365401248 49.1961964,0.0135334651 49.3957763,0.0135334651 C49.5845681,0.0135334651 49.7652661,0.0365401248 49.9378757,0.0825541344 C50.1104854,0.128568144 50.2615165,0.198941456 50.3909738,0.293676182 C50.520431,0.388410907 50.6242649,0.511564203 50.7024786,0.663139764 C50.7806924,0.814715325 50.8197987,0.996061937 50.8197987,1.20718504 C50.8197987,1.41289473 50.7806924,1.59153468 50.7024786,1.74311024 C50.6242649,1.8946858 50.520431,2.01919243 50.3909738,2.11663386 C50.2615165,2.21407529 50.1104854,2.28715527 49.9378757,2.33587598 C49.7652661,2.3845967 49.5845681,2.40895669 49.3957763,2.40895669 C49.1961964,2.40895669 49.0114529,2.3845967 48.8415403,2.33587598 C48.6716277,2.28715527 48.5232935,2.21407529 48.3965333,2.11663386 C48.2697731,2.01919243 48.1699847,1.8946858 48.097165,1.74311024 C48.0243453,1.59153468 47.987936,1.41289473 47.987936,1.20718504 Z M47.0412847,11.9338091 C47.1653479,11.9338091 47.2961517,11.9216291 47.4337,11.8972687 C47.5712483,11.8729083 47.6980066,11.822835 47.8139787,11.7470472 C47.9299508,11.6712595 48.0270423,11.5629928 48.105256,11.4222441 C48.1834698,11.2814954 48.222576,11.0920288 48.222576,10.8538386 L48.222576,5.80314961 C48.222576,5.58119968 48.1834698,5.40391307 48.105256,5.27128445 C48.0270423,5.13865583 47.9286023,5.03580253 47.8099332,4.96272146 C47.6912641,4.88964038 47.5631573,4.84227373 47.425609,4.82062008 C47.2880607,4.79896643 47.1599539,4.78813976 47.0412847,4.78813976 L46.8470999,4.78813976 L46.8470999,3.90305118 L50.7388883,3.90305118 L50.7388883,10.8538386 C50.7388883,11.0920288 50.7779946,11.2814954 50.8562083,11.4222441 C50.9344221,11.5629928 51.0315135,11.6712595 51.1474856,11.7470472 C51.2634577,11.822835 51.3915645,11.8729083 51.5318099,11.8972687 C51.6720552,11.9216291 51.8015105,11.9338091 51.9201796,11.9338091 L52.1143645,11.9338091 L52.1143645,12.8188976 L46.8470999,12.8188976 L46.8470999,11.9338091 L47.0412847,11.9338091 Z M52.8101936,15.9288878 C52.9342568,15.9288878 53.0650605,15.9167078 53.2026088,15.8923474 C53.3401572,15.8679871 53.4669155,15.8179138 53.5828876,15.742126 C53.6988597,15.6663382 53.7959511,15.5580716 53.8741649,15.4173228 C53.9523786,15.2765741 53.9914849,15.0871075 53.9914849,14.8489173 L53.9914849,5.94931102 C53.9914849,5.69488062 53.9631665,5.49188068 53.906529,5.34030512 C53.8498915,5.18872956 53.7716789,5.07234293 53.671889,4.99114173 C53.572099,4.90994054 53.4534317,4.85580722 53.3158834,4.82874016 C53.1783351,4.80167309 53.0313494,4.78813976 52.8749219,4.78813976 L52.7616474,4.78813976 L52.7616474,3.90305118 L56.0061529,3.90305118 L56.3055212,5.20226378 L56.3783406,5.20226378 C56.4970097,4.98572726 56.6359044,4.78814066 56.7950289,4.60949803 C56.9541535,4.43085541 57.1375484,4.27657545 57.3452194,4.14665354 C57.5528904,4.01673163 57.7861796,3.916585 58.045094,3.84621063 C58.3040085,3.77583626 58.5925859,3.74064961 58.9108349,3.74064961 C59.4610281,3.74064961 59.9478339,3.83132291 60.371267,4.01267224 C60.7947,4.19402158 61.1493535,4.47551482 61.4352382,4.85716043 C61.7211229,5.23880604 61.9382302,5.7219459 62.0865666,6.30659449 C62.2349031,6.89124308 62.3090701,7.5868562 62.3090701,8.39345472 C62.3090701,9.19463983 62.2362515,9.88619296 62.0906122,10.4681348 C61.9449728,11.0500767 61.7305625,11.5305099 61.4473748,11.9094488 C61.1641871,12.2883877 60.816276,12.5685276 60.4036311,12.749877 C59.9909862,12.9312263 59.5149683,13.0218996 58.9755632,13.0218996 C58.3444592,13.0218996 57.8320321,12.901453 57.4382663,12.6605561 C57.0445006,12.4196592 56.7289533,12.0962127 56.4916151,11.6902067 L56.3783406,11.6902067 C56.3999168,11.9446371 56.4214927,12.1936504 56.4430689,12.4372539 C56.459251,12.6429636 56.4740844,12.8622036 56.4875696,13.0949803 C56.5010547,13.3277571 56.5077972,13.530757 56.5077972,13.7039862 L56.5077972,14.8489173 C56.5077972,15.0871075 56.5469034,15.2765741 56.6251172,15.4173228 C56.7033309,15.5580716 56.8004224,15.6663382 56.9163945,15.742126 C57.0323666,15.8179138 57.1591249,15.8679871 57.2966732,15.8923474 C57.4342215,15.9167078 57.5623283,15.9288878 57.6809974,15.9288878 L58.045094,15.9288878 L58.045094,16.8139764 L52.6160087,16.8139764 L52.6160087,15.9288878 L52.8101936,15.9288878 Z M58.1988237,11.7876476 C58.754411,11.7876476 59.1522163,11.5075077 59.3922516,10.9472195 C59.6322869,10.3869313 59.7523027,9.54109818 59.7523027,8.40969488 C59.7523027,7.30535865 59.6322869,6.45817224 59.3922516,5.86811024 C59.1522163,5.27804823 58.759805,4.98302165 58.2150058,4.98302165 C57.8859687,4.98302165 57.6108762,5.05745496 57.3897201,5.20632382 C57.168564,5.35519267 56.99326,5.57443261 56.8638027,5.8640502 C56.7343455,6.15366779 56.642648,6.51094768 56.5887075,6.93590059 C56.534767,7.3608535 56.5077972,7.84670002 56.5077972,8.39345472 C56.5077972,8.96727649 56.534767,9.46665634 56.5887075,9.89160925 C56.642648,10.3165622 56.7343455,10.6697821 56.8638027,10.9512795 C56.99326,11.232777 57.165867,11.4425436 57.3816291,11.5805856 C57.5973911,11.7186277 57.8697866,11.7876476 58.1988237,11.7876476 Z" id="kinship" fill="#4E5B73"></path>
                </g>
                <g id="XMLID_84_" fill-rule="nonzero">
                    <path d="M35.752472,10.2008969 C37.4530873,4.30134529 38.1056491,0.0986547085 38.1056491,0.0986547085 C38.1056491,0.0986547085 12.2602503,-0.453811659 0.138422181,15.6663677 C0.217520571,15.6269058 17.9948836,7.83318386 35.752472,10.2008969 Z" id="XMLID_87_" fill="url(#linearGradient-1)"></path>
                    <path d="M10.5398604,12.2331839 C4.31086222,13.8511211 0.177971376,15.6466368 0.158196779,15.6663677 L0.158196779,15.6663677 L0.158196779,15.6663677 C0.158196779,15.6663677 8.76014662,37.8636771 30.8285972,43.9408072 C30.8088226,43.9605381 15.6417065,29.3596413 10.5398604,12.2331839 Z" id="XMLID_86_" fill="url(#linearGradient-2)"></path>
                    <path d="M38.1254236,0.11838565 C38.1254236,0.11838565 34.8032913,21.3883408 23.5515454,35.7327354 C27.5657887,40.8233184 30.8285972,43.9605381 30.8285972,43.9605381 L30.8285972,43.9605381 C30.8088226,43.9605381 46.8657957,20.8556054 38.1254236,0.11838565 Z" id="XMLID_85_" fill="url(#linearGradient-3)"></path>
                </g>
            </g>
        </g>
    </g>
</svg>